<svg width="22" height="22" viewBox="0 0 22 22" fill="none" xmlns="http://www.w3.org/2000/svg">
<path fill-rule="evenodd" clip-rule="evenodd" d="M13.9394 11.4131C13.9394 10.8608 14.3871 10.4131 14.9394 10.4131H14.9484C15.5007 10.4131 15.9484 10.8608 15.9484 11.4131C15.9484 11.9654 15.5007 12.4131 14.9484 12.4131H14.9394C14.3871 12.4131 13.9394 11.9654 13.9394 11.4131Z" fill="#EEEEEE"/>
<path fill-rule="evenodd" clip-rule="evenodd" d="M9.93036 11.4131C9.93036 10.8608 10.3781 10.4131 10.9304 10.4131H10.9394C11.4916 10.4131 11.9394 10.8608 11.9394 11.4131C11.9394 11.9654 11.4916 12.4131 10.9394 12.4131H10.9304C10.3781 12.4131 9.93036 11.9654 9.93036 11.4131Z" fill="#EEEEEE"/>
<path fill-rule="evenodd" clip-rule="evenodd" d="M5.92139 11.4131C5.92139 10.8608 6.3691 10.4131 6.92139 10.4131H6.93039C7.48267 10.4131 7.93039 10.8608 7.93039 11.4131C7.93039 11.9654 7.48267 12.4131 6.93039 12.4131H6.92139C6.3691 12.4131 5.92139 11.9654 5.92139 11.4131Z" fill="#EEEEEE"/>
<path fill-rule="evenodd" clip-rule="evenodd" d="M17.5406 4.45733C13.9322 0.847558 8.06897 0.847558 4.46062 4.45733L4.46047 4.45748C1.63458 7.28282 1.02089 11.4709 2.60695 14.8984C2.61227 14.9099 2.61731 14.9215 2.62204 14.9333C2.71421 15.1623 2.71214 15.4218 2.70799 15.5686C2.70278 15.7529 2.6824 15.9652 2.65723 16.1812C2.63344 16.3854 2.60322 16.6104 2.57251 16.8391L2.56613 16.8867C2.53286 17.1345 2.49899 17.3889 2.46942 17.6437C2.40946 18.1604 2.37181 18.643 2.38856 19.029C2.39691 19.2214 2.41794 19.3639 2.44479 19.4616C2.45384 19.4945 2.46212 19.5172 2.46823 19.5318C2.48284 19.5379 2.5055 19.5462 2.53842 19.5552C2.63615 19.582 2.77872 19.603 2.97108 19.6114C3.35711 19.6281 3.83965 19.5904 4.35634 19.5305C4.6111 19.501 4.86549 19.4671 5.1133 19.4339L5.16053 19.4276C5.38931 19.3969 5.6144 19.3667 5.81867 19.3429C6.03465 19.3178 6.24696 19.2974 6.43122 19.2923C6.578 19.2881 6.83748 19.2861 7.06641 19.3783C7.0781 19.383 7.08967 19.388 7.10111 19.3933C10.5293 20.9787 14.7158 20.3658 17.5406 17.5396L17.5407 17.5396C21.1495 13.9302 21.1567 8.07296 17.5407 4.45746L17.5406 4.45733ZM18.6013 3.39674C14.4071 -0.798958 7.59389 -0.798912 3.39975 3.39687C0.135715 6.66041 -0.585539 11.4848 1.2088 15.4479C1.20934 15.4654 1.20959 15.491 1.20859 15.5262C1.20529 15.6431 1.19115 15.803 1.16731 16.0076C1.14511 16.1982 1.11657 16.4107 1.08527 16.6438L1.07946 16.6871C1.04627 16.9344 1.01072 17.201 0.979419 17.4708C0.917652 18.0031 0.867813 18.5835 0.889971 19.094C0.901079 19.35 0.931103 19.6142 0.998431 19.8591C1.06422 20.0985 1.18061 20.3749 1.40296 20.5973L1.40331 20.5976C1.62572 20.8198 1.90206 20.936 2.14132 21.0017C2.3862 21.0689 2.65031 21.0989 2.90619 21.11C3.41665 21.1321 3.99685 21.0823 4.5291 21.0205C4.7988 20.9893 5.06543 20.9538 5.31266 20.9206L5.35558 20.9149C5.58877 20.8836 5.80137 20.8551 5.99202 20.8329C6.19666 20.8091 6.35648 20.795 6.47337 20.7917C6.50859 20.7907 6.53426 20.7909 6.55179 20.7915C10.5152 22.585 15.3381 21.8649 18.6014 18.6001C22.7951 14.4059 22.804 7.5989 18.6013 3.39674Z" fill="#EEEEEE"/>
</svg>
