<svg width="20" height="22" viewBox="0 0 20 22" fill="none" xmlns="http://www.w3.org/2000/svg">
<g filter="url(#filter0_d_567_42)">
<path fill-rule="evenodd" clip-rule="evenodd" d="M7.58012 11.0259H7.61012C10.4301 11.0259 12.7241 8.73187 12.7241 5.91087C12.7241 3.09087 10.4301 0.796875 7.61012 0.796875C4.79112 0.796875 2.49712 3.09088 2.49712 5.90788C2.49112 7.27087 3.01712 8.55287 3.97712 9.51987C4.93612 10.4849 6.21512 11.0209 7.58012 11.0259ZM3.99712 5.91088C3.99712 3.91788 5.61812 2.29688 7.61012 2.29688C9.60312 2.29688 11.2241 3.91788 11.2241 5.91088C11.2241 7.90388 9.60312 9.52588 7.61012 9.52588H7.58312C6.62112 9.52188 5.71812 9.14487 5.04212 8.46187C4.36412 7.77987 3.99312 6.87488 3.99712 5.91088Z" fill="#EEEEEE"/>
<path fill-rule="evenodd" clip-rule="evenodd" d="M0.0507812 17.6743C0.0507812 21.2033 5.54278 21.2033 7.60978 21.2033C9.47878 21.2033 15.1688 21.2033 15.1688 17.6543C15.1688 14.9673 11.7078 12.6963 7.60978 12.6963C3.51178 12.6963 0.0507812 14.9753 0.0507812 17.6743ZM1.55078 17.6743C1.55078 16.0323 4.14178 14.1963 7.60978 14.1963C11.0778 14.1963 13.6688 16.0213 13.6688 17.6543C13.6688 19.3473 10.3738 19.7033 7.60978 19.7033C3.58878 19.7033 1.55078 19.0203 1.55078 17.6743Z" fill="#EEEEEE"/>
<path d="M14.8532 9.82609C14.5212 9.82609 14.2182 9.60509 14.1282 9.26909C14.0222 8.86909 14.2592 8.45909 14.6602 8.35109C15.7672 8.05509 16.5402 7.04809 16.5402 5.90009C16.5412 4.70009 15.6902 3.65409 14.5162 3.41309C14.1102 3.33009 13.8482 2.93309 13.9322 2.52809C14.0142 2.12209 14.4102 1.85609 14.8172 1.94409C16.6862 2.32809 18.0412 3.99209 18.0412 5.90009C18.0412 7.72509 16.8092 9.33009 15.0462 9.80109C14.9822 9.81809 14.9162 9.82609 14.8532 9.82609Z" fill="#EEEEEE"/>
<path d="M16.9932 17.0196C17.0742 17.3646 17.3822 17.5976 17.7222 17.5976C17.7792 17.5976 17.8372 17.5916 17.8952 17.5776C19.0842 17.2976 19.9492 16.2986 19.9492 15.2016C19.9492 13.4746 17.8342 11.9016 15.5122 11.9016C15.0982 11.9016 14.7622 12.2376 14.7622 12.6516C14.7622 13.0656 15.0982 13.4016 15.5122 13.4016C17.1332 13.4016 18.4492 14.4916 18.4492 15.2016C18.4492 15.5486 18.1132 15.9856 17.5512 16.1176C17.1482 16.2116 16.8982 16.6166 16.9932 17.0196Z" fill="#EEEEEE"/>
</g>
<defs>
<filter id="filter0_d_567_42" x="0.0507812" y="0.796875" width="19.8984" height="20.4062" filterUnits="userSpaceOnUse" color-interpolation-filters="sRGB">
<feFlood flood-opacity="0" result="BackgroundImageFix"/>
<feColorMatrix in="SourceAlpha" type="matrix" values="0 0 0 0 0 0 0 0 0 0 0 0 0 0 0 0 0 0 127 0" result="hardAlpha"/>
<feOffset/>
<feComposite in2="hardAlpha" operator="out"/>
<feColorMatrix type="matrix" values="0 0 0 0 0.25098 0 0 0 0 0.701961 0 0 0 0 0.764706 0 0 0 1 0"/>
<feBlend mode="normal" in2="BackgroundImageFix" result="effect1_dropShadow_567_42"/>
<feBlend mode="normal" in="SourceGraphic" in2="effect1_dropShadow_567_42" result="shape"/>
</filter>
</defs>
</svg>
