<svg width="22" height="20" viewBox="0 0 22 20" fill="none" xmlns="http://www.w3.org/2000/svg">
<path d="M16.6314 8.69951H16.6564C17.0584 8.69951 17.3914 8.38051 17.4054 7.97451C17.4644 6.22951 16.4234 4.94651 14.8154 4.78151C14.4114 4.74751 14.0354 5.03851 13.9924 5.45051C13.9504 5.86251 14.2504 6.23051 14.6624 6.27351C15.4734 6.35651 15.9384 6.97351 15.9064 7.92451C15.8924 8.33851 16.2174 8.68551 16.6314 8.69951Z" fill="#EEEEEE"/>
<path fill-rule="evenodd" clip-rule="evenodd" d="M1.15932 10.639C2.95332 16.223 8.94632 19.236 11.0023 19.236C13.0733 19.236 19.0863 16.222 20.8423 10.638C21.9923 7.04603 20.7173 2.35803 16.6513 1.04803C14.9193 0.493028 12.5463 0.697028 10.9803 2.29003C9.52932 0.896028 7.37332 0.393028 5.34232 1.04903C1.28032 2.35603 0.00731695 7.04503 1.15832 10.638L1.15932 10.639ZM11.0023 17.736C9.81732 17.736 4.23432 15.306 2.58732 10.181C1.65632 7.27303 2.62032 3.50103 5.80232 2.47603C7.19332 2.02703 9.22532 2.27903 10.3943 3.89303C10.5393 4.09203 10.7713 4.19203 11.0183 4.20203C11.2643 4.19703 11.4923 4.07103 11.6283 3.86603C12.6943 2.24803 14.7423 2.01203 16.1923 2.47603C19.3773 3.50203 20.3433 7.27403 19.4123 10.184C17.8013 15.307 12.1963 17.736 11.0023 17.736Z" fill="#EEEEEE"/>
</svg>
