<svg width="20" height="20" viewBox="0 0 20 20" fill="none" xmlns="http://www.w3.org/2000/svg">
<path fill-rule="evenodd" clip-rule="evenodd" d="M6.15527 13.4497C6.15527 13.0355 6.49106 12.6997 6.90527 12.6997H12.3053C12.7195 12.6997 13.0553 13.0355 13.0553 13.4497C13.0553 13.8639 12.7195 14.1997 12.3053 14.1997H6.90527C6.49106 14.1997 6.15527 13.8639 6.15527 13.4497Z" fill="#EEEEEE"/>
<path fill-rule="evenodd" clip-rule="evenodd" d="M6.15436 9.43848C6.15436 9.02426 6.49014 8.68848 6.90436 8.68848H10.2604C10.6746 8.68848 11.0104 9.02426 11.0104 9.43848C11.0104 9.85269 10.6746 10.1885 10.2604 10.1885H6.90436C6.49014 10.1885 6.15436 9.85269 6.15436 9.43848Z" fill="#EEEEEE"/>
<path fill-rule="evenodd" clip-rule="evenodd" d="M2.9304 2.27249C4.46225 0.582932 6.83812 0 10.0398 0C10.9665 0 11.8213 0.0514172 12.5916 0.156939C12.7476 0.178315 12.893 0.248275 13.007 0.356897L18.677 5.7569C18.7922 5.86656 18.8695 6.00998 18.8978 6.16645C19.0982 7.27377 19.1898 8.55106 19.1898 10C19.1898 13.4998 18.6711 16.0653 17.1575 17.7318C15.624 19.42 13.2454 20 10.0398 20C6.83885 20 4.46271 19.4199 2.93062 17.7315C1.4185 16.0651 0.89978 13.4999 0.89978 10C0.89978 6.5048 1.41862 3.93992 2.9304 2.27249ZM4.04166 3.28001C2.93094 4.50508 2.39978 6.5652 2.39978 10C2.39978 13.4401 2.93106 15.4999 4.04144 16.7235C5.13185 17.9251 6.95071 18.5 10.0398 18.5C13.1341 18.5 14.9555 17.925 16.0471 16.7232C17.1585 15.4997 17.6898 13.4402 17.6898 10C17.6898 8.7185 17.6148 7.61383 17.4625 6.67165L12.1507 1.61282C11.5199 1.53823 10.8145 1.5 10.0398 1.5C6.95144 1.5 5.13232 2.07707 4.04166 3.28001Z" fill="#EEEEEE"/>
<path fill-rule="evenodd" clip-rule="evenodd" d="M11.9342 0.0825195C12.3484 0.0825195 12.6842 0.418306 12.6842 0.83252V3.49352C12.6842 4.93702 13.8541 6.10652 15.2982 6.10652H18.2492C18.6634 6.10652 18.9992 6.44231 18.9992 6.85652C18.9992 7.27073 18.6634 7.60652 18.2492 7.60652H15.2982C13.0263 7.60652 11.1842 5.76602 11.1842 3.49352V0.83252C11.1842 0.418306 11.52 0.0825195 11.9342 0.0825195Z" fill="#EEEEEE"/>
</svg>
