<svg width="18" height="18" viewBox="0 0 18 18" fill="none" xmlns="http://www.w3.org/2000/svg">
<path fill-rule="evenodd" clip-rule="evenodd" d="M13.058 8.19178L14.2852 6.55689C14.8932 5.74689 15.1492 4.7489 15.0062 3.74589C14.8632 2.74289 14.3392 1.85689 13.5292 1.24889C11.8582 -0.00510514 9.47619 0.331895 8.22119 2.00489L1.46919 10.9999C-0.542813 13.6829 1.24719 16.8789 1.32419 17.0139C1.42819 17.1949 1.60319 17.3239 1.80719 17.3709C1.86519 17.3849 2.42519 17.5089 3.20619 17.5089C4.46919 17.5089 6.30719 17.1859 7.53319 15.5519L12.9018 8.39988C12.933 8.37053 12.9621 8.3381 12.9887 8.30267C13.0154 8.26717 13.0385 8.23006 13.058 8.19178ZM2.47719 15.9619C3.25819 16.0569 5.22819 16.1239 6.33319 14.6509L11.3293 7.99511L7.66465 5.24362L2.66819 11.8999C1.54119 13.4039 2.16119 15.2449 2.47719 15.9619ZM8.56476 4.04449L12.23 6.79514L13.0852 5.65589C13.8442 4.6459 13.6392 3.20689 12.6292 2.44789C11.6182 1.69089 10.1782 1.8959 9.42019 2.90489L8.56476 4.04449Z" fill="#EEEEEE"/>
<path d="M16.733 17.2471H10.356C9.94196 17.2471 9.60596 16.9111 9.60596 16.4971C9.60596 16.0831 9.94196 15.7471 10.356 15.7471H16.733C17.147 15.7471 17.483 16.0831 17.483 16.4971C17.483 16.9111 17.147 17.2471 16.733 17.2471Z" fill="#EEEEEE"/>
</svg>
