<svg width="20" height="18" viewBox="0 0 20 18" fill="none" xmlns="http://www.w3.org/2000/svg">
<path fill-rule="evenodd" clip-rule="evenodd" d="M7.7806 12.2963C7.9956 12.4889 8.2606 12.56 8.5406 12.56C8.9026 12.56 9.2916 12.4421 9.6316 12.3152C10.4316 12.0164 14.1646 10.1687 14.1646 8.8709C14.1646 7.5929 10.5116 5.7803 9.5776 5.4338C9.1996 5.2916 8.3156 4.964 7.7806 5.4446C7.628 5.58284 7.16558 6.00174 7.1526 8.8511C7.13961 11.7194 7.62245 12.154 7.7806 12.2963ZM8.8166 11.1596C8.5966 10.229 8.5996 7.592 8.8196 6.6047C9.8176 6.9152 12.0956 8.267 12.6066 8.8736C12.0936 9.5009 9.7866 10.8806 8.8166 11.1596Z" fill="#EEEEEE"/>
<path fill-rule="evenodd" clip-rule="evenodd" d="M0 9C0 15.6447 2.617 18 10 18C17.383 18 20 15.6447 20 9C20 2.3553 17.383 0 10 0C2.617 0 0 2.3553 0 9ZM1.5 9C1.5 3.1374 3.486 1.35 10 1.35C16.514 1.35 18.5 3.1374 18.5 9C18.5 14.8626 16.514 16.65 10 16.65C3.486 16.65 1.5 14.8626 1.5 9Z" fill="#EEEEEE"/>
</svg>
