<svg width="20" height="22" viewBox="0 0 20 22" fill="none" xmlns="http://www.w3.org/2000/svg">
<path fill-rule="evenodd" clip-rule="evenodd" d="M6.75024 10.9998C6.75024 12.7918 8.20824 14.2498 10.0002 14.2498C11.7922 14.2498 13.2502 12.7918 13.2502 10.9998C13.2502 9.20776 11.7922 7.74976 10.0002 7.74976C8.20824 7.74976 6.75024 9.20776 6.75024 10.9998ZM8.25024 10.9998C8.25024 10.0348 9.03524 9.24976 10.0002 9.24976C10.9652 9.24976 11.7502 10.0348 11.7502 10.9998C11.7502 11.9648 10.9652 12.7498 10.0002 12.7498C9.03524 12.7498 8.25024 11.9648 8.25024 10.9998Z" fill="#EEEEEE"/>
<path fill-rule="evenodd" clip-rule="evenodd" d="M6.77475 18.008C6.77475 19.796 8.22175 21.25 9.99975 21.25C11.7777 21.25 13.2247 19.796 13.2247 18.008C13.2247 17.585 13.5047 17.378 13.6257 17.308C13.7447 17.241 14.0557 17.106 14.4117 17.311C15.1567 17.745 16.0248 17.859 16.8568 17.637C17.6908 17.413 18.3878 16.875 18.8188 16.123C19.7058 14.577 19.1758 12.592 17.6388 11.698C17.2798 11.488 17.2407 11.14 17.2407 11C17.2407 10.86 17.2798 10.512 17.6397 10.303C19.1758 9.41 19.7048 7.425 18.8188 5.877C18.3868 5.124 17.6898 4.587 16.8557 4.363C16.0238 4.143 15.1567 4.258 14.4127 4.69C14.0567 4.895 13.7427 4.759 13.6257 4.691C13.5047 4.622 13.2247 4.415 13.2247 3.992C13.2247 2.204 11.7777 0.75 9.99975 0.75C8.22175 0.75 6.77475 2.204 6.77475 3.992C6.77475 4.415 6.49475 4.622 6.37375 4.691C6.25575 4.762 5.94275 4.896 5.58875 4.69C4.84375 4.258 3.97675 4.143 3.14375 4.363C2.30975 4.587 1.61275 5.124 1.18075 5.877C0.29475 7.425 0.82375 9.41 2.35975 10.303C2.71975 10.512 2.75775 10.86 2.75775 11C2.75775 11.139 2.71975 11.488 2.35975 11.697C0.82375 12.592 0.29475 14.577 1.18075 16.123C1.61175 16.875 2.30875 17.412 3.14275 17.637C3.97375 17.859 4.84275 17.744 5.58975 17.31C5.94275 17.105 6.25575 17.241 6.37375 17.308C6.49375 17.378 6.77475 17.585 6.77475 18.008ZM7.12075 16.009C6.76475 15.804 6.37375 15.701 5.98275 15.701C5.58775 15.701 5.19375 15.805 4.83475 16.014C4.43675 16.244 3.97375 16.306 3.53175 16.187C3.08675 16.068 2.71275 15.78 2.48275 15.377C2.00375 14.544 2.28775 13.474 3.11475 12.994C3.83075 12.577 4.25775 11.831 4.25775 11C4.25775 10.169 3.83075 9.423 3.11375 9.006C2.28875 8.525 2.00475 7.457 2.48175 6.623C2.71275 6.22 3.08675 5.931 3.53175 5.812C3.97575 5.696 4.43775 5.757 4.83575 5.987C5.55075 6.403 6.40575 6.404 7.12175 5.992C7.84375 5.576 8.27475 4.829 8.27475 3.992C8.27475 3.031 9.04875 2.25 9.99975 2.25C10.9507 2.25 11.7247 3.031 11.7247 3.992C11.7247 4.828 12.1547 5.575 12.8767 5.991C13.5937 6.404 14.4487 6.401 15.1657 5.987C15.5627 5.757 16.0237 5.694 16.4677 5.812C16.9137 5.931 17.2868 6.22 17.5177 6.623C17.9948 7.457 17.7118 8.526 16.8848 9.006C16.1688 9.423 15.7417 10.169 15.7417 11C15.7417 11.831 16.1688 12.577 16.8848 12.994C17.7118 13.474 17.9958 14.544 17.5177 15.377C17.2868 15.78 16.9137 16.068 16.4677 16.187C16.0247 16.306 15.5627 16.244 15.1657 16.014C14.4507 15.598 13.5947 15.597 12.8777 16.009C12.1557 16.424 11.7247 17.172 11.7247 18.008C11.7247 18.969 10.9507 19.75 9.99975 19.75C9.04875 19.75 8.27475 18.969 8.27475 18.008C8.27475 17.171 7.84375 16.424 7.12075 16.009Z" fill="#EEEEEE"/>
</svg>
