<svg width="54" height="53" viewBox="0 0 54 53" fill="none" xmlns="http://www.w3.org/2000/svg">
<path d="M27.1475 52.765C41.7181 52.765 53.53 40.9531 53.53 26.3825C53.53 11.8118 41.7181 0 27.1475 0C12.5769 0 0.765015 11.8118 0.765015 26.3825C0.765015 40.9531 12.5769 52.765 27.1475 52.765Z" fill="url(#paint0_linear_567_3)"/>
<path fill-rule="evenodd" clip-rule="evenodd" d="M12.7073 26.104C20.3983 22.7531 25.5268 20.544 28.0929 19.4767C35.4196 16.4293 36.9421 15.8999 37.9343 15.8824C38.1526 15.8786 38.6406 15.9327 38.9567 16.1892C39.2236 16.4057 39.297 16.6983 39.3321 16.9036C39.3673 17.109 39.411 17.5767 39.3763 17.9422C38.9792 22.1139 37.2613 32.2375 36.3873 36.9099C36.0174 38.8869 35.2892 39.5498 34.5843 39.6147C33.0522 39.7557 31.8888 38.6022 30.4049 37.6295C28.0829 36.1074 26.7711 35.1599 24.5172 33.6746C21.9124 31.9581 23.601 31.0147 25.0854 29.4728C25.4739 29.0693 32.2243 22.9293 32.355 22.3724C32.3713 22.3027 32.3865 22.043 32.2322 21.9059C32.0779 21.7688 31.8503 21.8157 31.686 21.853C31.4531 21.9058 27.7437 24.3576 20.5577 29.2084C19.5048 29.9314 18.5511 30.2836 17.6966 30.2652C16.7546 30.2448 14.9426 29.7326 13.5956 29.2947C11.9434 28.7576 10.6302 28.4737 10.7446 27.5616C10.8041 27.0865 11.4583 26.6006 12.7073 26.104Z" fill="white"/>
<defs>
<linearGradient id="paint0_linear_567_3" x1="27.1475" y1="0" x2="27.1475" y2="52.3736" gradientUnits="userSpaceOnUse">
<stop stop-color="#2CA4E0"/>
<stop offset="1" stop-color="#0D83BF"/>
</linearGradient>
</defs>
</svg>
