<svg width="22" height="16" viewBox="0 0 22 16" fill="none" xmlns="http://www.w3.org/2000/svg">
<path fill-rule="evenodd" clip-rule="evenodd" d="M18.398 4.42147C17.5436 4.86669 16.5071 5.55538 15.6174 6.26074C15.2928 6.51806 14.8211 6.46352 14.5637 6.13893C14.3064 5.81434 14.361 5.34261 14.6855 5.08529C15.6339 4.33351 16.7498 3.58885 17.7049 3.09122C18.1775 2.84496 18.6454 2.64078 19.0518 2.53604C19.2531 2.48413 19.4796 2.44582 19.7041 2.45925C19.9262 2.47253 20.2341 2.54362 20.4726 2.80086C20.611 2.94988 20.6972 3.12601 20.7533 3.26523C20.8137 3.4148 20.8623 3.58096 20.9029 3.75106C20.984 4.09152 21.0461 4.50592 21.0933 4.9556C21.1883 5.85842 21.2307 6.97402 21.2265 8.07589C21.2222 9.17805 21.1712 10.2875 21.0743 11.1788C21.026 11.6226 20.9646 12.0291 20.8871 12.36C20.8484 12.5252 20.8023 12.6864 20.7456 12.8309C20.6941 12.9618 20.6112 13.1394 20.4719 13.2887C20.2241 13.5559 19.9016 13.612 19.6929 13.6181C19.4747 13.6245 19.2539 13.5818 19.0578 13.5276C18.6605 13.4177 18.1972 13.2121 17.725 12.9648C16.7711 12.4653 15.6477 11.725 14.6904 10.9788C14.3637 10.7242 14.3053 10.2529 14.5599 9.92621C14.8146 9.59952 15.2859 9.54112 15.6125 9.79577C16.5124 10.4972 17.5604 11.1854 18.4208 11.636C18.8309 11.8507 19.1696 11.9961 19.4142 12.0693C19.4183 12.053 19.4224 12.0358 19.4266 12.0179C19.4846 11.7703 19.538 11.4308 19.5831 11.0166C19.6728 10.1918 19.7224 9.13702 19.7265 8.07013C19.7306 7.00296 19.6891 5.94475 19.6016 5.11245C19.5576 4.69457 19.5038 4.35108 19.4437 4.09876C19.4343 4.05932 19.4251 4.02351 19.4161 3.99117C19.1718 4.05562 18.8243 4.19936 18.398 4.42147ZM19.3322 12.3213C19.3322 12.3212 19.3326 12.3206 19.3333 12.3193C19.3326 12.3207 19.3322 12.3213 19.3322 12.3213Z" fill="#EEEEEE"/>
<path fill-rule="evenodd" clip-rule="evenodd" d="M3.55499 3.15803C2.69851 4.01725 2.2644 5.482 2.2644 8.03712C2.2644 10.5917 2.69849 12.0565 3.55502 12.9159C4.41083 13.7745 5.86928 14.21 8.41536 14.21C10.9609 14.21 12.4191 13.7745 13.2748 12.9159C14.1313 12.0565 14.5654 10.5917 14.5654 8.03712C14.5654 5.482 14.1313 4.01722 13.2749 3.158C12.4192 2.29949 10.961 1.86426 8.41536 1.86426C5.86919 1.86426 4.41077 2.2995 3.55499 3.15803ZM2.49263 2.09906C3.79328 0.794254 5.78533 0.364258 8.41536 0.364258C11.0449 0.364258 13.0368 0.794265 14.3373 2.09909C15.6371 3.4032 16.0654 5.39985 16.0654 8.03712C16.0654 10.6739 15.6371 12.6705 14.3373 13.9748C13.0368 15.2797 11.045 15.71 8.41536 15.71C5.78524 15.71 3.79322 15.2797 2.4926 13.9748C1.1927 12.6706 0.764404 10.6739 0.764404 8.03712C0.764404 5.39985 1.19268 3.40317 2.49263 2.09906Z" fill="#EEEEEE"/>
</svg>
