<svg width="95" height="79" viewBox="0 0 95 79" fill="none" xmlns="http://www.w3.org/2000/svg">
<path d="M39.3717 0L24.639 56.5742L20.5749 37.4613C26.5018 37.4613 31.4127 39.3301 35.3075 43.0677C39.2023 46.8054 41.1497 51.8172 41.1497 58.1032C41.1497 64.3892 39.2023 69.486 35.3075 73.3935C31.4127 77.1312 26.5865 79 20.8289 79C14.7326 79 9.73707 77.0462 5.84224 73.1387C1.94741 69.2312 0 64.2194 0 58.1032C0 56.0645 0.084671 54.1957 0.254011 52.4968C0.592692 50.628 1.18538 48.4193 2.03209 45.871C2.87879 43.3226 4.06417 40.0946 5.58823 36.1871L19.0508 0H39.3717ZM93.2219 0L78.4893 56.5742L74.4251 37.4613C80.352 37.4613 85.2629 39.3301 89.1578 43.0677C93.0526 46.8054 95 51.8172 95 58.1032C95 64.3892 93.0526 69.486 89.1578 73.3935C85.2629 77.1312 80.4367 79 74.6791 79C68.5829 79 63.5873 77.0462 59.6925 73.1387C55.7977 69.2312 53.8503 64.2194 53.8503 58.1032C53.8503 56.0645 53.9349 54.1957 54.1043 52.4968C54.443 50.628 55.0357 48.4193 55.8824 45.871C56.7291 43.3226 57.9144 40.0946 59.4385 36.1871L72.9011 0H93.2219Z" fill="#1DC4EE"/>
</svg>
